<svg xmlns="http://www.w3.org/2000/svg" viewBox="0 0 128 128"><defs><style>.cls-1{isolation:isolate;}.cls-2{mix-blend-mode:multiply;}.cls-3{fill:#eae0b5;}.cls-4{fill:#b78d5c;}.cls-5{fill:#c6ba89;}.cls-6{fill:#8c8153;}</style></defs><title>cow</title><g class="cls-1"><g id="icons" class="cls-2"><path d="M53.77,24.43a30.44,30.44,0,0,0-10.42,5.43C39.86,25.31,38.24,19,38.53,11a.5.5,0,0,1,.95-.2C39.55,10.92,44.81,21.5,53.77,24.43Z"/><path d="M84.64,29.88l-.29-.24a30.14,30.14,0,0,0-10.13-5.21c9-2.91,14.23-13.51,14.3-13.65a.5.5,0,0,1,.95.2C89.76,19,88.14,25.33,84.64,29.88Z"/><path class="cls-3" d="M94.25,68.81c-1-6.46-5.59-7.87-11.25-8.81A18.41,18.41,0,0,1,69.05,49.72c-1.94-3.88-2-7.5-.06-10.77,2.41-4.15,8-7.43,15.37-9.31A32.2,32.2,0,0,0,64,23C36.93,23,27,49.36,27,72s9.93,33,37,33c24.38,0,34.85-8.4,36.69-26.61A12.79,12.79,0,0,1,94.25,68.81Z"/><path class="cls-4" d="M113,31.5a.5.5,0,0,0-.5-.5H86c-.52-.47-1-.93-1.6-1.36C77,31.51,71.4,34.8,69,38.95c-1.9,3.27-1.87,6.89.06,10.77A18.41,18.41,0,0,0,83,60c5.65.94,10.25,2.35,11.25,8.81a12.79,12.79,0,0,0,6.45,9.58A63.46,63.46,0,0,0,101,72a70.28,70.28,0,0,0-4.3-24.72c.66-.22,1.32-.44,2-.69C108,43.08,113,37.86,113,31.5Z"/><ellipse class="cls-5" cx="64" cy="79" rx="26" ry="18"/><path class="cls-6" d="M60,79a4,4,0,1,1-4-4A4,4,0,0,1,60,79Zm12-4a4,4,0,1,0,4,4A4,4,0,0,0,72,75Z"/><circle cx="47" cy="50" r="4"/><circle cx="81" cy="50" r="4"/><path class="cls-4" d="M42,31A41.2,41.2,0,0,0,31.29,47.28c-.65-.21-1.31-.44-2-.69C20,43.08,15,37.86,15,31.5a.5.5,0,0,1,.5-.5Z"/></g></g></svg>