<svg xmlns="http://www.w3.org/2000/svg" viewBox="0 0 128 128"><defs><style>.cls-1{isolation:isolate;}.cls-2{mix-blend-mode:multiply;}.cls-3{fill:#b78d5c;}.cls-4{fill:#5b361d;}.cls-5{fill:#9b6f43;}</style></defs><title>dog</title><g class="cls-1"><g id="icons" class="cls-2"><path class="cls-3" d="M97,60c0,32-21.41,45-33,45S31,92,31,60c0-1,0-2,0-3,3.54-2.17,6.41-7.92,5.69-17.24-.79-10.18,7.61-10,11.38-9.42a4.27,4.27,0,0,0,3.31-.86,4.2,4.2,0,0,0,1-5.44A57.54,57.54,0,0,1,64,23a57.54,57.54,0,0,1,11.6,1,4.2,4.2,0,0,0,1,5.44,4.27,4.27,0,0,0,3.31.86c3.77-.58,12.17-.76,11.38,9.42C90.56,49.09,93.43,54.84,97,57,97,58,97,59,97,60Z"/><path class="cls-4" d="M70.45,82.23l-.16.06c-.71.29-1.89.93-2.91,1.34A1,1,0,0,1,66,82.7V77.13a2,2,0,0,1,1.33-1.88c2.35-.89,4.67-2.46,4.67-3.92C72,69.12,68.42,68,64,68s-8,1.12-8,3.33c0,1.46,2.33,3,4.67,3.92A2,2,0,0,1,62,77.13V82.7a1,1,0,0,1-1.38.93c-1-.41-2.2-1-2.91-1.34l-.16-.07a1,1,0,0,0-1.25,1.48,8.78,8.78,0,0,0,3.21,3.06,8.79,8.79,0,0,0,9,0,8.78,8.78,0,0,0,3.21-3.06,1,1,0,0,0-1.26-1.48Z"/><path class="cls-5" d="M58.79,42.15c-6.6-6.35-23.21,2.11-17.69,15.79C46.4,71,56.43,75.24,56.43,61.55,56.43,52.74,67.19,50.23,58.79,42.15Z"/><circle cx="51" cy="50" r="4"/><circle cx="77" cy="50" r="4"/><path class="cls-4" d="M51.41,29.49a4.27,4.27,0,0,1-3.31.86c-3.77-.58-12.17-.76-11.38,9.42C37.44,49.09,34.57,54.84,31,57a6.11,6.11,0,0,1-4.43.88c-5.06-1-11.13-3-5.06-25.16,5.2-19,21.54-16.52,29.94-9.73a3.81,3.81,0,0,1,.92,1A4.2,4.2,0,0,1,51.41,29.49Z"/><path class="cls-4" d="M101.4,57.89A6.11,6.11,0,0,1,97,57c-3.54-2.17-6.41-7.92-5.69-17.24.79-10.18-7.61-10-11.38-9.42a4.27,4.27,0,0,1-3.31-.86,4.2,4.2,0,0,1-1-5.44,3.81,3.81,0,0,1,.92-1c8.4-6.79,24.74-9.25,29.94,9.73C112.53,54.87,106.46,56.89,101.4,57.89Z"/></g></g></svg>