<svg xmlns="http://www.w3.org/2000/svg" viewBox="0 0 128 128"><defs><style>.cls-1{isolation:isolate;}.cls-2{mix-blend-mode:multiply;}.cls-3{fill:#efb14d;}.cls-4{fill:#e4e7ed;}.cls-5{fill:#ba642a;}</style></defs><title>duck</title><g class="cls-1"><g id="icons" class="cls-2"><path class="cls-3" d="M81.78,81.38c-5-16.94-7.92-22.38-12-22.38a5.75,5.75,0,0,0-3.7,1.16,3.22,3.22,0,0,1-4.15,0A5.75,5.75,0,0,0,58.23,59c-4.09,0-7,5.44-12,22.38-2.84,9.63-2.94,15-.35,18.45S54.12,105,64,105s15.48-1.59,18.14-5.17S84.62,91,81.78,81.38Z"/><path class="cls-4" d="M100,69c0,9.06-6.42,17-16.16,21.69a55.55,55.55,0,0,0-2.06-9.31c-5-16.94-7.92-22.38-12-22.38a5.79,5.79,0,0,0-3.7,1.16,3.2,3.2,0,0,1-4.14,0A5.79,5.79,0,0,0,58.23,59c-4.09,0-7,5.44-12,22.38a55.55,55.55,0,0,0-2.06,9.31C34.42,86,28,78.06,28,69c0-6.43,3.23-12.3,8.58-16.84A4.09,4.09,0,0,0,38,49v0a26,26,0,0,1,52,0v0a4.09,4.09,0,0,0,1.42,3.14C96.77,56.7,100,62.57,100,69Z"/><circle cx="75" cy="46" r="4"/><circle cx="53" cy="46" r="4"/><circle class="cls-5" cx="60" cy="71" r="2"/><circle class="cls-5" cx="68" cy="71" r="2"/></g></g></svg>