<svg xmlns="http://www.w3.org/2000/svg" viewBox="0 0 128 128"><defs><style>.cls-1{isolation:isolate;}.cls-2{mix-blend-mode:multiply;}.cls-3{fill:#efb14d;}.cls-4{fill:#cc8333;}.cls-5{fill:#eae0b5;}.cls-6{fill:#5b361d;}</style></defs><title>fox</title><g class="cls-1"><g id="icons" class="cls-2"><path class="cls-3" d="M98.14,54.23c-2.73,6.43-7.63,14.35-15.71,16.33A4.43,4.43,0,0,0,79,74.62a50,50,0,0,1-8.1,24.23C69.5,97.62,66.94,97,64,97s-5.5.62-6.89,1.86A50.08,50.08,0,0,1,49,74.62a4.43,4.43,0,0,0-3.44-4.06c-8.08-2-13-9.9-15.71-16.33C28.41,38,35.8,23,64,23S99.59,38,98.14,54.23Z"/><path class="cls-4" d="M43.1,27.08C34.79,31.24,31,38.18,30,46.06,25.68,43.55,23.31,38.35,23,31a48.24,48.24,0,0,1,1-11.06l.11-.44.44,0C32.25,20.47,39.36,24.57,43.1,27.08Z"/><path class="cls-4" d="M105,31c-.26,7.4-2.63,12.6-6.91,15.11-1-7.88-4.83-14.82-13.14-19,3.74-2.51,10.85-6.61,18.5-7.58l.44,0,.11.44A48.24,48.24,0,0,1,105,31Z"/><path class="cls-5" d="M56,101.17a3.41,3.41,0,0,0,.85,2C49,99.23,42.06,88.72,35.37,74a62.33,62.33,0,0,1-5.51-19.77c2.73,6.43,7.63,14.35,15.71,16.33A4.43,4.43,0,0,1,49,74.62a50.08,50.08,0,0,0,8.1,24.24A3,3,0,0,0,56,101.17Z"/><path class="cls-5" d="M98.14,54.23A62.33,62.33,0,0,1,92.63,74C85.94,88.72,79,99.23,71.15,103.22a3.41,3.41,0,0,0,.85-2,3,3,0,0,0-1.11-2.32A50,50,0,0,0,79,74.62a4.43,4.43,0,0,1,3.44-4.06C90.51,68.58,95.41,60.66,98.14,54.23Z"/><path class="cls-6" d="M72,101.17a3.41,3.41,0,0,1-.85,2,16.23,16.23,0,0,1-4.8,1.59,14.63,14.63,0,0,1-4.7,0,16.23,16.23,0,0,1-4.8-1.59,3.41,3.41,0,0,1-.85-2,3,3,0,0,1,1.11-2.31C58.5,97.62,61.06,97,64,97s5.5.62,6.89,1.85A3,3,0,0,1,72,101.17Z"/><circle cx="51" cy="62" r="4"/><circle cx="77" cy="62" r="4"/></g></g></svg>