<svg xmlns="http://www.w3.org/2000/svg" viewBox="0 0 128 128"><defs><style>.cls-1{isolation:isolate;}.cls-2{mix-blend-mode:multiply;}.cls-3{fill:#5b361d;}.cls-4{fill:#b78d5c;}.cls-5{fill:#9b6f43;}.cls-6{fill:#efb14d;}</style></defs><title>horse-brown</title><g class="cls-1"><g id="icons" class="cls-2"><path class="cls-3" d="M49.17,25.85a26.84,26.84,0,0,0-9.64,6.94c-3.47-4.8-6-11.92.38-19.79C41.51,16.86,47.06,20.69,49.17,25.85Z"/><path class="cls-3" d="M88.47,32.79a26.84,26.84,0,0,0-9.64-6.94c2.11-5.16,7.66-9,9.26-12.85C94.42,20.87,91.94,28,88.47,32.79Z"/><path class="cls-4" d="M64,105c-20,0-32-22-32-49,0-22.64,14-33,32-33S96,33.36,96,56C96,83,84,105,64,105Z"/><circle class="cls-5" cx="64" cy="79" r="18"/><path class="cls-3" d="M62,79a4,4,0,1,1-4-4A4,4,0,0,1,62,79Zm8-4a4,4,0,1,0,4,4A4,4,0,0,0,70,75Z"/><circle cx="47" cy="50" r="4"/><circle cx="81" cy="50" r="4"/><path class="cls-6" d="M69.09,21.64c-3.82-3-9.79-1.41-12.05,1-2.5,2.63-5.72,8.35.84,17.2a.47.47,0,0,0,.38.19l.15,0a.48.48,0,0,0,.32-.45s0-4.32,1.81-7.07c.29,1.79,1.28,5,4.65,5.7a.48.48,0,0,0,.52-.67s-2.13-4.56.19-7.93c.4,1.71,1.46,5.07,3.62,5.82a.47.47,0,0,0,.46-.09.48.48,0,0,0,.16-.45A8,8,0,0,1,71,30.32C72.08,27.64,73.18,24.87,69.09,21.64Z"/></g></g></svg>