<svg xmlns="http://www.w3.org/2000/svg" viewBox="0 0 128 128"><defs><style>.cls-1{isolation:isolate;}.cls-2{mix-blend-mode:multiply;}.cls-3{fill:#878c99;}.cls-4{fill:#e4e7ed;}.cls-5{fill:#bcc3ce;}</style></defs><title>sheep</title><g class="cls-1"><g id="icons" class="cls-2"><path class="cls-3" d="M43.78,31A27.58,27.58,0,0,0,33.19,46.54C23.9,43,19,37.83,19,31.5a.5.5,0,0,1,.5-.5Z"/><path class="cls-3" d="M109,31.5c0,6.33-4.9,11.53-14.19,15A27.58,27.58,0,0,0,84.22,31H108.5A.5.5,0,0,1,109,31.5Z"/><path class="cls-4" d="M64,25C46,25,32,36.09,32,56a52.78,52.78,0,0,0,2.24,15.13A41.63,41.63,0,0,0,44.59,89C48,97.24,55.38,103,64,103s16-5.76,19.41-14A41.63,41.63,0,0,0,93.76,71.11,52.78,52.78,0,0,0,96,56C96,36.09,82,25,64,25Z"/><circle cx="77" cy="51" r="4"/><circle cx="51" cy="51" r="4"/><path class="cls-3" d="M70.45,87.23l-.16.06c-.71.29-1.89.93-2.91,1.34A1,1,0,0,1,66,87.7V82.13a2,2,0,0,1,1.33-1.88c2.35-.89,4.67-2.46,4.67-3.92C72,74.12,68.42,73,64,73s-8,1.12-8,3.33c0,1.46,2.33,3,4.67,3.92A2,2,0,0,1,62,82.13V87.7a1,1,0,0,1-1.38.93c-1-.41-2.2-1-2.91-1.34l-.16-.07a1,1,0,0,0-1.25,1.48,8.78,8.78,0,0,0,3.21,3.06,8.79,8.79,0,0,0,9,0,8.78,8.78,0,0,0,3.21-3.06,1,1,0,0,0-1.26-1.48Z"/><path class="cls-5" d="M78.95,26.53A4,4,0,0,0,79,26a4,4,0,0,0-4-4,4,4,0,0,0-1.09.17,4,4,0,0,0-6.15-2.48A4,4,0,0,0,61.5,17.9a4,4,0,0,0-6.41,2.27A4,4,0,0,0,54,20a4,4,0,0,0-3.42,6,4,4,0,1,0,3.27,6.77l.17.05S54,33,54,33a4,4,0,0,0,7.76,1.31,3.94,3.94,0,0,0,3.65.42,4,4,0,0,0,7.48-.84,4,4,0,0,0,1.61-.79,4,4,0,1,0,4.45-6.57Z"/></g></g></svg>